<?xml version="1.0" encoding="UTF-8" standalone="no"?>
<svg width="257px" height="972px" viewBox="0 0 257 972" version="1.1" xmlns="http://www.w3.org/2000/svg" xmlns:xlink="http://www.w3.org/1999/xlink">
    <!-- Generator: Sketch 40 (33762) - http://www.bohemiancoding.com/sketch -->
    <title>Fill 1</title>
    <desc>Created with Sketch.</desc>
    <defs></defs>
    <g id="Page-2" stroke="none" stroke-width="1" fill="none" fill-rule="evenodd">
        <g id="iPhone-6" transform="translate(-59.000000, -19.000000)" fill="#E1AA7D">
            <path d="M315.251031,471.437573 C315.171608,439.746972 287.879569,420.402147 270.293513,398.053166 C250.73007,362.339832 258.356316,319.724883 255.274376,258.524949 C252.652598,206.472581 247.261658,149.47306 243.145581,111.987036 C242.212156,103.482224 241.485067,102.036234 244.604672,99.5258115 C249.944027,95.228781 251.006003,71.0309639 245.723145,59.6177952 C245.99089,59.5342783 246.254542,59.4442109 246.516556,59.352506 C247.22645,59.1085054 247.917512,58.8374846 248.570091,58.5091483 C249.130965,58.2274831 249.663181,57.9056971 250.163464,57.5396962 C250.66866,57.1794269 251.141104,56.7749427 251.574246,56.3180557 C251.675777,55.4877987 251.703616,54.659998 251.67987,53.8362913 C251.664313,53.122303 251.610273,52.4115898 251.512837,51.7033331 C251.370366,50.662646 251.141923,49.6285093 250.868446,48.6009229 C250.38372,46.7520862 249.736872,44.9245381 249.060549,43.1240103 C248.467742,41.5371876 247.85774,39.970016 247.316518,38.4233143 C246.71061,37.0231767 246.2832,35.4731998 245.850876,33.9150349 C245.193385,31.5282506 244.522793,29.1234528 243.157863,27.2091126 C243.153769,27.2033811 243.150494,27.1968307 243.145581,27.1902804 L243.145581,27.1902804 C243.134937,27.1755421 243.122655,27.1632602 243.112011,27.1485219 C242.742735,26.6384132 242.32515,26.1610564 241.841243,25.7320084 C241.343416,25.2906784 240.772717,24.8894694 240.126688,24.5545827 C239.090095,24.0297358 238.033851,23.5703924 236.961231,23.1634518 C235.105025,22.4511011 233.196416,21.9025091 231.257512,21.4644544 C229.927791,21.1574067 228.585788,20.8970302 227.230684,20.6915129 C226.851582,20.6341973 226.470024,20.5965328 226.090104,20.5457676 C225.692989,20.4917272 225.295055,20.440962 224.896302,20.3926531 C224.129911,20.301767 223.36352,20.2166124 222.594672,20.1437398 C222.265517,20.1126256 221.936362,20.0823302 221.607207,20.0528536 C221.229743,20.0201019 220.853098,19.9791622 220.475634,19.9488668 C220.117821,19.9210278 219.760008,19.9013768 219.401376,19.8759942 C217.498499,19.7359804 215.599716,19.6229868 213.722221,19.5018053 C209.507889,19.2307845 205.287006,19.0891332 201.064486,19.034274 C199.227931,19.0080726 197.391376,18.9941531 195.553184,19.002341 C189.491653,19.0318176 183.43749,19.2225966 177.386603,19.4887046 C172.903706,19.686034 168.428179,20.0847866 163.978852,20.6399289 C159.529526,21.1950712 155.088388,21.9049655 150.673451,22.7122963 C148.082787,23.2093043 145.370941,23.4156403 142.685297,23.7407015 C142.225135,23.7955607 141.766611,23.8561515 141.308905,23.921655 C141.130408,23.9470376 140.949454,23.9642323 140.770957,23.9920713 C139.121906,24.2450786 137.487594,24.5897908 135.93516,25.1179129 C135.293226,25.3365309 134.668486,25.5969074 134.055209,25.8867604 C133.180737,26.2986138 132.331648,26.7792458 131.52268,27.3687774 C130.837349,27.88298 130.251912,28.4782432 129.741803,29.1300032 C129.524823,29.4042991 129.316849,29.6859643 129.128526,29.9790925 C128.894351,30.3450934 128.687196,30.7282889 128.491505,31.1188536 C127.623583,32.8358645 127.078266,34.7698558 126.65495,36.7022095 C126.621379,36.8487736 126.592721,36.9945189 126.561607,37.141083 C126.520668,37.3351372 126.478909,37.5283725 126.440426,37.7216079 C126.26111,38.5854355 126.093257,39.4427128 125.930317,40.2656007 C125.790303,41.6853893 125.52092,43.0781578 125.18849,44.4619196 C125.042745,45.0678271 124.886355,45.6688218 124.729146,46.2698166 C123.785896,49.7955432 122.693625,53.2901557 122.770591,56.9911043 C122.937625,57.9335361 123.286432,58.6688131 123.759694,59.2272305 C123.908715,59.4065464 124.06838,59.5703052 124.241964,59.7119565 C124.601415,60.0075412 125.00508,60.2212464 125.443954,60.3768172 C125.445591,60.377636 125.44641,60.377636 125.448048,60.3784548 C126.315969,60.6871401 127.308347,60.7395429 128.306457,60.5978916 C123.534526,72.3754235 124.686569,95.3024724 129.871172,99.4742275 C132.989958,101.985468 132.262869,103.429821 131.329444,111.935452 C127.212548,149.426389 121.823247,206.440648 119.20065,258.499566 C116.117891,319.707688 123.747413,362.309536 104.181513,398.027784 C86.5930003,420.379221 59.2772159,439.742878 59.1986117,471.437573 C58.8145973,625.763034 59.1986117,780.087677 59.1986117,934.413139 C59.1986117,947.620285 76.2025053,968.090133 101.289533,977.588143 C126.377379,987.086152 158.235832,991.008175 187.229325,990.999987 C216.230187,990.991799 248.100922,987.037025 273.185493,977.539015 C298.269245,968.041005 315.251031,947.562969 315.251031,934.364011 C315.251031,780.056563 315.635046,625.743383 315.251031,471.437573" id="Fill-1"></path>
        </g>
    </g>
</svg>