<?xml version="1.0" encoding="utf-8"?>
<!-- Generator: Adobe Illustrator 18.1.1, SVG Export Plug-In . SVG Version: 6.00 Build 0)  -->
<svg version="1.1" id="Ebene_1" xmlns="http://www.w3.org/2000/svg" xmlns:xlink="http://www.w3.org/1999/xlink" x="0px" y="0px"
	 viewBox="0 0 960 560" style="enable-background:new 0 0 960 560;" xml:space="preserve">
<style type="text/css">
	.st0{fill:#E6AA82;}
	.st1{fill:#FAF0D2;}
</style>
<path class="st0" d="M384,123c2.2-0.4,4.4-0.8,6.6-1c0.5-0.1,1-0.1,1.5-0.2l-1.9-1.9c-4.8-4.8-9.7-9.7-14.5-14.5
	c-0.6-0.6-1.1-1.1-1.7-1.7c-2-2-3.9-4-6-5.6c-2.6-1.9-5.2-2.9-7.8-2.9c-3.1,0-6.2,1.4-8.9,4.1c-18,17.9-36.1,36.1-54,54
	c-1.4,1.4-2.5,3-3,4.4c-2.1,5.4-0.7,10.1,4.4,15.3l21.8,21.8c0-0.2,0.1-0.3,0.1-0.5c2.7-16.4,9.9-32.1,21.2-46.5
	C351.6,134.9,365.9,126.6,384,123z"/>
<path class="st0" d="M581,410.1c0.5,0.2,1,0.4,1.5,0.6c1.4,0.6,2.6,1.9,3.7,3.9c0.5,0.9,0.8,1.8,1,2.7c0.9-0.2,1.8-0.5,2.2-0.9
	c4.6-4.4,9.2-9,13.7-13.5c1.4-1.4,2.8-2.8,4.2-4.2c0.7-0.7,1.3-1.3,2-2c2.1-2,4.2-4.1,6.1-6.3c0.2-0.2,0.3-1,0.2-1.7
	c-0.1-0.1-0.3-0.2-0.4-0.3c-0.7,0.2-1.3,0.3-1.9,0.3c-3.2,0-4.3-2.8-5-4.7l-0.3-1c-1.4-3.8-2.3-5.9-5.7-5.9L602,377c0,0,0,0,0,0
	c-1.8,0-3.2-1.5-4.2-2.8l-0.1,0c-7.6-9-17.5-21-27.6-33.2c-2.9-3.5-5.7-7-8.6-10.5l-1.5-1.8c-6-7.4-12.2-15-18.4-22.3
	c-6.7-7.8-9.9-16.2-9.9-25.7c0-10.3-3.3-19.7-9.9-28.1c-2.6-3.3-5.6-6.3-8.5-9.3c-0.8-0.8-1.6-1.6-2.3-2.4
	c-3.6-3.7-7.2-7.4-10.9-11.1c-1.3,0.1-2.8,0.3-4.2,0.7c-2.5,0.6-5.2,1.5-8,2.7c-0.3,0.1-0.7,0.3-1,0.5c-0.9,0.4-1.8,0.9-2.7,1.3
	c-0.2,0.8-0.4,1.5-0.8,2.1c-1.6,3.1-1.8,5.7-0.6,8.7c3.8,9.9,2.7,19.5-2.9,27c-4.1,5.4-8.8,10.8-17.1,12.4c-2.8,0.5-5.3,0.9-7.6,1
	c-0.8,0.1-1.7,0.1-2.5,0.1c-4.2,0-8-0.7-11.7-2.1c-0.4-0.2-0.8-0.3-1.2-0.5c-0.4,0-1.2,0.3-1.9,0.5c-0.6,0.2-1.3,0.4-1.9,0.6
	l-1.6,0.3l0,0c-0.8,1.4-1.6,2.6-2.2,3.8c-1.9,3.5-3.4,6.8-4.5,9.8c-0.3,0.9-0.6,1.7-0.8,2.5l0.9,0.8c2.5,2.3,5.1,4.7,7.7,7.1
	c4.5,4.2,8.7,8.4,12.7,12.4c9.2,9.4,20.9,11.5,32.2,12.5c7.2,0.6,12.6,2.1,16.7,4.6c5.7,3.5,10.8,7.9,15.8,12.1
	c1.9,1.6,3.8,3.2,5.8,4.8c2.3,1.8,4.5,3.7,6.8,5.5l0.5,0.4c5.3,4.3,9.4,7.6,13.2,10.8c12,9.9,23.9,19.8,32.9,27.3l0.3,0.3
	c1.2,1,2.8,2.2,2.8,4C575.1,407.5,577.1,408.5,581,410.1z"/>
<path class="st1" d="M508.4,355.4c-5.1-4.3-9.9-8.3-15.1-11.6c-3.2-2-7.9-3.2-14-3.7c-11.8-1-25.4-3.4-36-14.2
	c-3.9-4-8.1-8.1-12.6-12.3c-2.3-2.2-4.7-4.4-7-6.5c0-0.1,0-0.1,0-0.2c0,0,0,0.1,0,0.1c0,0.6,0,1.2,0,1.6c0,0.7,0,0,0,0l-2.1,0.7
	c-0.1-0.1-0.3-0.3-0.4-0.4l-3.5-3.2c0.1-1.1,0.2-2.3,0.5-3.7c0.3-1.5,0.7-3.1,1.3-4.9c0.4-1.1,0.8-2.4,1.3-3.7
	c0.7-1.8,1.6-3.7,2.6-5.8c0.6-1.3,1.3-2.6,2.1-3.9c0.2-0.4,0.5-0.9,0.8-1.3c0.5-0.8,0.9-1.6,1.4-2.4c0.8-1.3,1.7-2.7,2.6-4.1
	c2.3-3.4,5.1-7.1,8.3-11.1c2.9-3.5,6.1-7.3,9.8-11.3c5.1-5.5,9.9-10.1,14.4-13.9c4.4-3.7,8.5-6.7,12.3-9c0.8-0.5,1.7-1,2.5-1.5
	c1.4-0.8,2.8-1.6,4.1-2.2c1.1-0.6,2.2-1.1,3.3-1.5c0.3-0.1,0.5-0.2,0.8-0.3c1.6-0.7,3.1-1.2,4.6-1.7c1.8-0.6,3.5-1,5-1.2
	c1.6-0.3,3.1-0.5,4.5-0.6c2.5-0.1,4.4,0,5.8,0.3l1.1,1.1c0.2,0.2,0.4,0.4,0.6,0.6l-1.5,4.1c2.8,2.8,5.7,5.8,8.9,9.1
	c0.8,0.8,1.5,1.6,2.3,2.3c3,3.1,6.2,6.3,9,9.8c7.5,9.5,11.3,20.2,11.2,31.9c0,8,2.7,15,8.5,21.8c6.3,7.4,12.6,15.1,18.6,22.5
	c0.5,0.6,1,1.2,1.4,1.8c1-0.9,2-1.8,2.9-2.6c2.4-2.1,4.7-4.3,6.9-6.5c0.5-0.5,1.1-1,1.6-1.6c16.9-17.2,30.3-37,39.8-59.2
	c8.2-19.2,12.6-39.2,9.5-60.2c-2.6-17.4-9.2-33.2-21.3-45.8c-19.6-20.4-44-27.8-71.5-20.4c-28.6,7.7-46,27.5-54.5,55.5
	c-0.5,1.7-0.9,3.3-1.3,5c-0.1,0.3-0.1,0.6-0.2,0.9l-1,0.2c-0.6-2.4-1.3-4.8-2.1-7.2c-1.6-5.1-3.6-10.1-6-14.9
	c-8.3-16.4-21.4-28.7-36.8-35.6c-6-2.7-12.4-4.6-19-5.6c-2.1-0.3-4.1-0.5-6.2-0.7c-1.7-0.1-3.5-0.2-5.2-0.1c-2,0-4,0.1-6,0.3
	c-2.7,0.2-5.5,0.6-8.3,1.2c-15.7,3.1-29.6,10.4-39.4,22.9c-11.3,14.4-18.2,30-20.5,46.7c-0.2,1.5-0.4,3-0.5,4.5
	c-0.2,2-0.3,3.9-0.3,5.9c0,1.4,0,2.9,0,4.3c0.1,4.9,0.6,9.8,1.4,14.8c0.3,1.6,0.6,3.2,0.9,4.8c0.8,3.7,1.8,7.4,2.9,11
	c4.7,15,12.1,28.7,21.1,41.6c10.8,15.5,23.7,28.9,37.8,41.4c0.8,0.7,1.5,1.4,2.3,2l0.1-0.1c23,20.2,45.6,40.7,68.4,61.2
	c5.2,4.7,10.5,9.4,15.9,14.2c0.9-0.8,1.7-1.4,2.4-2.1c10.8-9.5,21.6-19,32.3-28.6c2.4-2.1,4.8-4.3,7.2-6.4c0.8-0.7,1.6-1.4,2.4-2.1
	c-2.2-1.8-4.4-3.6-6.9-5.6C512.3,358.7,510.3,357,508.4,355.4z"/>
<path class="st1" d="M627.4,464.7c-0.6-3.1-1.5-6.2-2.6-9.1c-1.7-4.7-3.9-9.1-6.3-13.5c-3.2-5.9-6.8-11.5-10.6-16.9
	c-0.9-1.3-1.8-2.6-2.8-3.9c-0.9-1.3-1.9-2.5-2.9-3.8c-0.1-0.2-0.2-0.3-0.4-0.5c-0.4-0.5-0.4-0.4-0.8,0c-1.2,1.7-2.5,3.3-3.7,5
	c-0.1,0.2-0.3,0.4-0.4,0.6c-3.4,4.7-6.6,9.5-9.5,14.4c-1.3,2.1-2.5,4.3-3.7,6.5c-3.1,5.8-5.8,11.7-7.5,18c-0.8,2.8-1.3,5.7-1.2,8.8
	c-0.1,3,0.5,6,1.6,8.9c1.2,3.4,3.1,6.5,5.6,9.1c4.3,4.5,9.6,7.2,15.7,8c2.6,0.3,5.1,0.3,7.7-0.1c3.5-0.6,6.8-1.7,9.8-3.6
	c6.8-4.3,10.9-10.5,12.2-18.5C628.1,471,627.9,467.8,627.4,464.7z"/>
</svg>
